<svg width="16" height="16" viewBox="0 0 16 16" fill="none" xmlns="http://www.w3.org/2000/svg">
<rect width="16" height="16" fill="#94ACCC"/>
<path d="M7.92627 9.86426V13H5.69824V3.75781H9.38623C10.0929 3.75781 10.7171 3.889 11.2588 4.15137C11.8047 4.40951 12.2257 4.77979 12.522 5.26221C12.8224 5.7404 12.9727 6.28418 12.9727 6.89355C12.9727 7.79492 12.6489 8.51644 12.0015 9.05811C11.3582 9.59554 10.4738 9.86426 9.34814 9.86426H7.92627ZM7.92627 8.14404H9.38623C9.81787 8.14404 10.1458 8.03613 10.3701 7.82031C10.5986 7.60449 10.7129 7.2998 10.7129 6.90625C10.7129 6.47461 10.5965 6.12972 10.3638 5.87158C10.131 5.61344 9.81364 5.48226 9.41162 5.47803H7.92627V8.14404Z" fill="white"/>
</svg>
