<svg width="193" height="58" viewBox="0 0 193 58" fill="none" xmlns="http://www.w3.org/2000/svg">
<path d="M1.836 34C2.004 34 2.16 33.832 2.304 33.496C2.472 33.16 2.556 32.608 2.556 31.84V14.56C2.556 13.792 2.472 13.252 2.304 12.94C2.136 12.604 1.968 12.424 1.8 12.4H13.608C16.656 12.4 18.852 13.048 20.196 14.344C21.564 15.64 22.248 17.428 22.248 19.708C22.248 22.036 21.564 23.86 20.196 25.18C18.852 26.476 16.656 27.124 13.608 27.124H8.1V31.84C8.1 32.608 8.184 33.16 8.352 33.496C8.52 33.832 8.688 34 8.856 34H1.836ZM9.576 23.164H11.376C12.792 23.164 13.884 23.044 14.652 22.804C15.444 22.564 15.996 22.192 16.308 21.688C16.62 21.184 16.776 20.524 16.776 19.708C16.776 18.508 16.404 17.668 15.66 17.188C14.916 16.708 13.608 16.468 11.736 16.468H9.576C8.832 16.468 8.4 16.516 8.28 16.612C8.16 16.684 8.1 16.96 8.1 17.44V22.156C8.1 22.636 8.16 22.924 8.28 23.02C8.4 23.116 8.832 23.164 9.576 23.164ZM38.9995 34.36C34.8715 34.36 31.8835 33.376 30.0355 31.408C28.2115 29.416 27.2995 26.644 27.2995 23.092C27.2995 20.812 27.6955 18.856 28.4875 17.224C29.3035 15.568 30.5635 14.296 32.2675 13.408C33.9955 12.496 36.2395 12.04 38.9995 12.04H40.1155C42.8275 12.04 45.0235 12.484 46.7035 13.372C48.4075 14.26 49.6555 15.532 50.4475 17.188C51.2395 18.844 51.6355 20.812 51.6355 23.092C51.6355 26.644 50.7235 29.416 48.8995 31.408C47.0755 33.376 44.1475 34.36 40.1155 34.36H38.9995ZM39.3595 30.364H39.7555C41.9635 30.364 43.5835 29.812 44.6155 28.708C45.6475 27.604 46.1635 25.732 46.1635 23.092C46.1635 20.524 45.6355 18.7 44.5795 17.62C43.5235 16.54 41.9155 16 39.7555 16H39.3595C37.1035 16 35.4355 16.564 34.3555 17.692C33.2995 18.796 32.7715 20.596 32.7715 23.092C32.7715 25.732 33.3235 27.604 34.4275 28.708C35.5315 29.812 37.1755 30.364 39.3595 30.364ZM68.8745 34.36C66.2585 34.36 63.9425 34.24 61.9265 34C59.9105 33.76 58.4585 33.52 57.5705 33.28V32.2L56.8505 27.628C57.3065 28.012 58.0625 28.42 59.1185 28.852C60.1745 29.284 61.5305 29.656 63.1865 29.968C64.8425 30.256 66.7625 30.4 68.9465 30.4C70.2905 30.4 71.3225 30.316 72.0425 30.148C72.7625 29.956 73.2545 29.692 73.5185 29.356C73.7825 29.02 73.9145 28.624 73.9145 28.168C73.9145 27.592 73.7225 27.148 73.3385 26.836C72.9545 26.5 72.2585 26.224 71.2505 26.008C70.2665 25.792 68.8625 25.564 67.0385 25.324C64.8545 25.036 63.0305 24.64 61.5665 24.136C60.1025 23.632 59.0105 22.924 58.2905 22.012C57.5705 21.076 57.2105 19.84 57.2105 18.304C57.2105 17.056 57.5345 15.964 58.1825 15.028C58.8305 14.092 59.8745 13.36 61.3145 12.832C62.7545 12.304 64.6625 12.04 67.0385 12.04C69.5345 12.04 71.6705 12.16 73.4465 12.4C75.2225 12.64 76.4465 12.88 77.1185 13.12V14.2L78.1985 18.16C77.5985 17.848 76.7345 17.524 75.6065 17.188C74.4785 16.852 73.1705 16.576 71.6825 16.36C70.1945 16.12 68.5865 16 66.8585 16C65.2505 16 64.1465 16.204 63.5465 16.612C62.9705 16.996 62.6825 17.536 62.6825 18.232C62.6825 18.808 62.8985 19.276 63.3305 19.636C63.7865 19.972 64.5185 20.248 65.5265 20.464C66.5345 20.68 67.8905 20.884 69.5945 21.076C72.2105 21.364 74.2265 21.796 75.6425 22.372C77.0585 22.948 78.0305 23.692 78.5585 24.604C79.1105 25.492 79.3865 26.572 79.3865 27.844C79.3865 30.076 78.5465 31.72 76.8665 32.776C75.1865 33.832 72.5225 34.36 68.8745 34.36ZM84.9684 34C85.1364 34 85.2924 33.844 85.4364 33.532C85.6044 33.196 85.6884 32.632 85.6884 31.84V14.56C85.6884 13.792 85.6044 13.24 85.4364 12.904C85.2924 12.568 85.1364 12.4 84.9684 12.4H91.9164C91.7484 12.4 91.5804 12.568 91.4124 12.904C91.2444 13.216 91.1604 13.78 91.1604 14.596V31.84C91.1604 32.608 91.2444 33.16 91.4124 33.496C91.5804 33.832 91.7484 34 91.9164 34H84.9684ZM104.767 34C104.935 34 105.103 33.832 105.271 33.496C105.439 33.16 105.523 32.608 105.523 31.84V17.44C105.523 16.912 105.463 16.6 105.343 16.504C105.223 16.408 104.803 16.36 104.083 16.36H101.455C100.063 16.36 98.9353 16.516 98.0713 16.828C97.2313 17.116 96.6793 17.392 96.4153 17.656L97.1353 13.48V12.4H119.455V13.48L120.175 17.656C119.911 17.392 119.347 17.116 118.483 16.828C117.643 16.516 116.527 16.36 115.135 16.36H112.543C111.799 16.36 111.367 16.408 111.247 16.504C111.127 16.6 111.067 16.912 111.067 17.44V31.84C111.067 32.608 111.151 33.16 111.319 33.496C111.487 33.832 111.655 34 111.823 34H104.767ZM124.664 34C124.832 34 124.988 33.844 125.132 33.532C125.3 33.196 125.384 32.632 125.384 31.84V14.56C125.384 13.792 125.3 13.24 125.132 12.904C124.988 12.568 124.832 12.4 124.664 12.4H131.612C131.444 12.4 131.276 12.568 131.108 12.904C130.94 13.216 130.856 13.78 130.856 14.596V31.84C130.856 32.608 130.94 33.16 131.108 33.496C131.276 33.832 131.444 34 131.612 34H124.664ZM148.891 34.36C144.763 34.36 141.775 33.376 139.927 31.408C138.103 29.416 137.191 26.644 137.191 23.092C137.191 20.812 137.587 18.856 138.379 17.224C139.195 15.568 140.455 14.296 142.159 13.408C143.887 12.496 146.131 12.04 148.891 12.04H150.007C152.719 12.04 154.915 12.484 156.595 13.372C158.299 14.26 159.547 15.532 160.339 17.188C161.131 18.844 161.527 20.812 161.527 23.092C161.527 26.644 160.615 29.416 158.791 31.408C156.967 33.376 154.039 34.36 150.007 34.36H148.891ZM149.251 30.364H149.647C151.855 30.364 153.475 29.812 154.507 28.708C155.539 27.604 156.055 25.732 156.055 23.092C156.055 20.524 155.527 18.7 154.471 17.62C153.415 16.54 151.807 16 149.647 16H149.251C146.995 16 145.327 16.564 144.247 17.692C143.191 18.796 142.663 20.596 142.663 23.092C142.663 25.732 143.215 27.604 144.319 28.708C145.423 29.812 147.067 30.364 149.251 30.364ZM167.102 34C167.27 34 167.438 33.832 167.606 33.496C167.774 33.16 167.858 32.608 167.858 31.84V14.56C167.858 13.792 167.774 13.252 167.606 12.94C167.438 12.604 167.27 12.424 167.102 12.4H174.158C173.99 12.4 173.942 12.568 174.014 12.904C174.11 13.24 174.506 13.816 175.202 14.632C175.418 14.872 175.838 15.364 176.462 16.108C177.11 16.828 177.854 17.692 178.694 18.7C179.558 19.684 180.446 20.716 181.358 21.796C182.294 22.876 183.17 23.884 183.986 24.82H184.058V14.56C184.058 13.792 183.974 13.252 183.806 12.94C183.638 12.604 183.47 12.424 183.302 12.4H190.358C190.19 12.4 190.022 12.568 189.854 12.904C189.686 13.24 189.602 13.804 189.602 14.596V31.84C189.602 32.608 189.686 33.16 189.854 33.496C190.022 33.832 190.19 34 190.358 34H184.166C184.31 34 184.322 33.832 184.202 33.496C184.106 33.16 183.734 32.584 183.086 31.768C182.654 31.216 182.066 30.484 181.322 29.572C180.578 28.636 179.75 27.616 178.838 26.512C177.926 25.408 177.002 24.292 176.066 23.164C175.154 22.036 174.302 21.004 173.51 20.068H173.402V31.84C173.402 32.608 173.486 33.16 173.654 33.496C173.822 33.832 173.99 34 174.158 34H167.102Z" fill="white"/>
<path fill-rule="evenodd" clip-rule="evenodd" d="M59 51H1H0V52H1H59V51ZM133 52H192H193V51H192H133V52Z" fill="white"/>
<path d="M73.092 52.052L74.896 55H73.675L72.256 52.536H70.991L70.496 55H69.44L70.617 49.17H71.673L71.178 51.634H72.366L74.764 49.17H75.941L73.092 52.052ZM79.2974 55.066C78.7474 55.066 78.267 54.9633 77.8564 54.758C77.4457 54.5453 77.1267 54.2483 76.8994 53.867C76.672 53.4857 76.5584 53.0457 76.5584 52.547C76.5584 51.8943 76.705 51.3077 76.9984 50.787C77.2917 50.2663 77.6987 49.8593 78.2194 49.566C78.74 49.2653 79.3267 49.115 79.9794 49.115C80.5294 49.115 81.0097 49.2177 81.4204 49.423C81.831 49.6283 82.1464 49.9217 82.3664 50.303C82.5937 50.677 82.7074 51.117 82.7074 51.623C82.7074 52.2757 82.5607 52.866 82.2674 53.394C81.974 53.9147 81.567 54.3253 81.0464 54.626C80.533 54.9193 79.95 55.066 79.2974 55.066ZM79.3634 54.142C79.796 54.142 80.1847 54.0393 80.5294 53.834C80.8814 53.6213 81.1527 53.328 81.3434 52.954C81.5414 52.58 81.6404 52.1547 81.6404 51.678C81.6404 51.1573 81.49 50.754 81.1894 50.468C80.8887 50.182 80.4597 50.039 79.9024 50.039C79.4697 50.039 79.081 50.1453 78.7364 50.358C78.3917 50.5633 78.1204 50.853 77.9224 51.227C77.7244 51.601 77.6254 52.0263 77.6254 52.503C77.6254 53.0163 77.7757 53.4197 78.0764 53.713C78.3844 53.999 78.8134 54.142 79.3634 54.142ZM92.2382 49.17L91.0832 55H90.1262L90.9732 50.765L88.0912 54.34H87.6292L86.1772 50.699L85.3302 55H84.3622L85.5282 49.17H86.6062L88.1022 53.108L91.2482 49.17H92.2382ZM101.752 51.601C101.752 52.2683 101.583 52.8587 101.246 53.372C100.908 53.8853 100.432 54.2887 99.8158 54.582C99.1998 54.8753 98.4848 55.0367 97.6708 55.066L97.2528 57.134H96.3178L96.7358 55.055C95.7751 54.9963 95.0491 54.7617 94.5578 54.351C94.0665 53.9403 93.8208 53.3537 93.8208 52.591C93.8208 51.931 93.9895 51.348 94.3268 50.842C94.6641 50.3287 95.1408 49.9253 95.7568 49.632C96.3728 49.3387 97.0915 49.1737 97.9128 49.137L98.3748 46.838H99.3098L98.8478 49.137C99.8011 49.1883 100.523 49.423 101.015 49.841C101.506 50.2517 101.752 50.8383 101.752 51.601ZM97.8468 54.175C98.7415 54.109 99.4491 53.856 99.9698 53.416C100.49 52.976 100.751 52.4077 100.751 51.711C100.751 51.1757 100.582 50.7723 100.245 50.501C99.9075 50.2223 99.3831 50.0647 98.6718 50.028L97.8468 54.175ZM94.8218 52.459C94.8218 53.0017 94.9941 53.4123 95.3388 53.691C95.6835 53.9623 96.2078 54.1237 96.9118 54.175L97.7368 50.039C96.8275 50.105 96.1125 50.3543 95.5918 50.787C95.0785 51.2197 94.8218 51.777 94.8218 52.459ZM106.128 55.066C105.578 55.066 105.098 54.9633 104.687 54.758C104.276 54.5453 103.957 54.2483 103.73 53.867C103.503 53.4857 103.389 53.0457 103.389 52.547C103.389 51.8943 103.536 51.3077 103.829 50.787C104.122 50.2663 104.529 49.8593 105.05 49.566C105.571 49.2653 106.157 49.115 106.81 49.115C107.36 49.115 107.84 49.2177 108.251 49.423C108.662 49.6283 108.977 49.9217 109.197 50.303C109.424 50.677 109.538 51.117 109.538 51.623C109.538 52.2757 109.391 52.866 109.098 53.394C108.805 53.9147 108.398 54.3253 107.877 54.626C107.364 54.9193 106.781 55.066 106.128 55.066ZM106.194 54.142C106.627 54.142 107.015 54.0393 107.36 53.834C107.712 53.6213 107.983 53.328 108.174 52.954C108.372 52.58 108.471 52.1547 108.471 51.678C108.471 51.1573 108.321 50.754 108.02 50.468C107.719 50.182 107.29 50.039 106.733 50.039C106.3 50.039 105.912 50.1453 105.567 50.358C105.222 50.5633 104.951 50.853 104.753 51.227C104.555 51.601 104.456 52.0263 104.456 52.503C104.456 53.0163 104.606 53.4197 104.907 53.713C105.215 53.999 105.644 54.142 106.194 54.142ZM115.285 49.115C115.783 49.115 116.227 49.2177 116.616 49.423C117.004 49.621 117.309 49.9107 117.529 50.292C117.749 50.666 117.859 51.1097 117.859 51.623C117.859 52.283 117.716 52.8733 117.43 53.394C117.144 53.9147 116.748 54.3253 116.242 54.626C115.743 54.9193 115.182 55.066 114.559 55.066C114.06 55.066 113.631 54.978 113.272 54.802C112.912 54.6187 112.637 54.3547 112.447 54.01L111.831 57.134H110.775L112.359 49.17H113.371L113.228 49.896C113.77 49.3753 114.456 49.115 115.285 49.115ZM114.515 54.142C114.947 54.142 115.336 54.0393 115.681 53.834C116.025 53.6213 116.297 53.328 116.495 52.954C116.693 52.58 116.792 52.1547 116.792 51.678C116.792 51.1573 116.641 50.754 116.341 50.468C116.04 50.182 115.611 50.039 115.054 50.039C114.621 50.039 114.229 50.1453 113.877 50.358C113.532 50.5633 113.261 50.853 113.063 51.227C112.872 51.601 112.777 52.0263 112.777 52.503C112.777 53.0163 112.927 53.4197 113.228 53.713C113.536 53.999 113.965 54.142 114.515 54.142ZM124.633 50.094H122.477L121.52 55H120.464L121.421 50.094H119.309L119.485 49.17H124.809L124.633 50.094Z" fill="white"/>
</svg>
