<svg width="20" height="20" viewBox="0 0 20 20" fill="none" xmlns="http://www.w3.org/2000/svg">
<path fill-rule="evenodd" clip-rule="evenodd" d="M14.325 12.899L19.705 18.279C19.8941 18.4682 20.0003 18.7248 20.0002 18.9924C20.0001 19.2599 19.8937 19.5164 19.7045 19.7055C19.5153 19.8946 19.2587 20.0008 18.9912 20.0007C18.7236 20.0006 18.4671 19.8942 18.278 19.705L12.898 14.325C11.2897 15.5707 9.26729 16.1569 7.24214 15.9644C5.21699 15.7718 3.34124 14.815 1.99649 13.2886C0.651744 11.7622 -0.0609975 9.78081 0.0032639 7.74755C0.0675253 5.71428 0.903963 3.78186 2.34242 2.34341C3.78087 0.904951 5.71329 0.0685133 7.74656 0.00425191C9.77982 -0.0600095 11.7612 0.652732 13.2876 1.99748C14.814 3.34223 15.7708 5.21798 15.9634 7.24313C16.1559 9.26828 15.5697 11.2907 14.324 12.899H14.325ZM8.00001 14C9.59131 14 11.1174 13.3679 12.2427 12.2426C13.3679 11.1174 14 9.5913 14 8C14 6.4087 13.3679 4.88258 12.2427 3.75736C11.1174 2.63214 9.59131 2 8.00001 2C6.40871 2 4.88259 2.63214 3.75737 3.75736C2.63215 4.88258 2.00001 6.4087 2.00001 8C2.00001 9.5913 2.63215 11.1174 3.75737 12.2426C4.88259 13.3679 6.40871 14 8.00001 14V14Z" fill="#00295F"/>
</svg>
