<?xml version="1.0" encoding="UTF-8"?>
<svg xmlns="http://www.w3.org/2000/svg" xmlns:xlink="http://www.w3.org/1999/xlink" width="14pt" height="14pt" viewBox="0 0 18 18" version="1.1">
<g id="surface1">
<path style=" stroke:none;fill-rule:nonzero;fill:rgba(67, 67, 72, 0.296)" d="M 11.855469 2.027344 C 9.144531 -0.675781 4.738281 -0.675781 2.027344 2.027344 C -0.675781 4.738281 -0.675781 9.144531 2.027344 11.855469 C 4.441406 14.265625 8.195312 14.519531 10.902344 12.640625 C 10.960938 12.910156 11.089844 13.167969 11.300781 13.375 L 15.242188 17.316406 C 15.816406 17.890625 16.746094 17.890625 17.316406 17.316406 C 17.890625 16.746094 17.890625 15.816406 17.316406 15.242188 L 13.375 11.300781 C 13.167969 11.09375 12.910156 10.960938 12.640625 10.90625 C 14.523438 8.195312 14.265625 4.445312 11.855469 2.027344 Z M 10.609375 10.609375 C 8.585938 12.628906 5.296875 12.628906 3.273438 10.609375 C 1.257812 8.585938 1.257812 5.296875 3.273438 3.273438 C 5.296875 1.257812 8.585938 1.257812 10.609375 3.273438 C 12.628906 5.296875 12.628906 8.585938 10.609375 10.609375 Z M 10.609375 10.609375 "/>
</g>
</svg>
