<svg width="80" height="76" viewBox="0 0 80 76" fill="none" xmlns="http://www.w3.org/2000/svg">
<path d="M70.359 9.13474L70.3571 9.13274C68.3584 7.04841 66.0099 5.40033 63.4434 4.27064L63.4401 4.26916C60.7781 3.09278 57.929 2.49303 55.0567 2.50006L55.0506 2.50008C51.0149 2.50007 47.0711 3.67475 43.6334 5.90574L43.6334 5.90579C42.8104 6.43981 42.0294 7.02587 41.2895 7.66432L39.6563 9.07361L38.023 7.66432C37.2831 7.02587 36.5021 6.43981 35.6791 5.90579L35.6791 5.90574C32.2414 3.67475 28.2976 2.50007 24.2619 2.50007C21.35 2.50007 18.5364 3.09195 15.8724 4.26918L15.8696 4.27041C13.2934 5.40508 10.9643 7.03956 8.95467 9.13351L8.95138 9.13694C6.9565 11.2076 5.35523 13.6827 4.2453 16.4258L70.359 9.13474ZM70.359 9.13474C72.3528 11.2092 73.9547 13.6855 75.0683 16.4286L70.359 9.13474ZM20.3315 57.4352L20.3317 57.4355C24.5066 61.537 28.6701 65.0126 31.8379 67.4935C33.42 68.7326 34.7491 69.7199 35.7009 70.4093C36.1767 70.754 36.5575 71.0236 36.8277 71.2125C36.9629 71.3071 37.0697 71.3809 37.1462 71.4333C37.2292 71.4902 37.2639 71.5132 37.2619 71.512L37.2819 71.525L37.3016 71.5385L39.4723 73.0195C39.4728 73.0199 39.4733 73.0202 39.4738 73.0206C39.5388 73.0643 39.5995 73.0787 39.6517 73.0787C39.7038 73.0787 39.7645 73.0643 39.8295 73.0206C39.83 73.0202 39.8305 73.0199 39.831 73.0195L42.0017 71.5385L42.0022 71.5381C42.3095 71.3286 50.5979 65.6532 58.9726 57.4345C64.0115 52.4855 68.0166 47.6544 70.8997 43.082C72.7215 40.189 74.1295 37.3652 75.0853 34.6871L75.0872 34.6817C76.2407 31.473 76.8033 28.3703 76.8033 25.4395V25.4329C76.8117 22.3103 76.2223 19.2823 75.0684 16.4287L20.3315 57.4352ZM20.3315 57.4352C15.2922 52.4859 11.2868 47.6546 8.40359 43.082C6.5848 40.1937 5.18336 37.3677 4.21608 34.6817C3.06259 31.473 2.5 28.3703 2.5 25.4395C2.5 22.3115 3.09061 19.2804 4.24522 16.426L20.3315 57.4352Z" stroke="#00295F" stroke-width="5"/>
</svg>
